<svg xmlns="http://www.w3.org/2000/svg" style="background:#f6f7f3" viewBox="0 0 720 234" role="img" aria-label="Model alone versus the full frame, per board"><title>Model alone versus the full frame, per board</title><style>text{font:12px 'Helvetica Neue',Helvetica,Arial,sans-serif}.grid{stroke:#d8dbd2}.tick,.axis{fill:#5d6459}.label{fill:#1a1c1e;font-size:13px}.value{fill:#1a1c1e}.deadline{stroke:#c62828;stroke-width:1.5;stroke-dasharray:6 4}.deadline-label{fill:#c62828;font-size:11px}</style><line x1="150.0" y1="10.0" x2="150.0" y2="206.0" class="grid" /><text x="150.0" y="220.0" class="tick" text-anchor="middle" dy="0">0</text><line x1="343.6" y1="10.0" x2="343.6" y2="206.0" class="grid" /><text x="343.6" y="220.0" class="tick" text-anchor="middle" dy="0">20</text><line x1="537.2" y1="10.0" x2="537.2" y2="206.0" class="grid" /><text x="537.2" y="220.0" class="tick" text-anchor="middle" dy="0">40</text><text x="400.0" y="230.0" class="axis" text-anchor="middle" dy="0">milliseconds, p95</text><text x="142.0" y="40.0" class="label" text-anchor="end" dy="0">RTX 5090</text><rect x="150.0" y="18.0" width="19.7" height="16.0" fill="#1f6fd1" rx="2"/><text x="175.7" y="30.0" class="value" text-anchor="start" dy="0">model alone 2.0 ms</text><rect x="150.0" y="38.0" width="54.9" height="16.0" fill="#c62828" rx="2"/><text x="210.9" y="50.0" class="value" text-anchor="start" dy="0">full frame 5.7 ms</text><text x="142.0" y="98.0" class="label" text-anchor="end" dy="0">Jetson AGX Thor</text><rect x="150.0" y="76.0" width="106.9" height="16.0" fill="#1f6fd1" rx="2"/><text x="262.9" y="88.0" class="value" text-anchor="start" dy="0">model alone 11.0 ms</text><rect x="150.0" y="96.0" width="157.0" height="16.0" fill="#c62828" rx="2"/><text x="313.0" y="108.0" class="value" text-anchor="start" dy="0">full frame 16.2 ms</text><text x="142.0" y="156.0" class="label" text-anchor="end" dy="0">Jetson Orin NX (rover)</text><rect x="150.0" y="134.0" width="260.0" height="16.0" fill="#1f6fd1" rx="2"/><text x="416.0" y="146.0" class="value" text-anchor="start" dy="0">model alone 26.9 ms</text><rect x="150.0" y="154.0" width="463.0" height="16.0" fill="#c62828" rx="2"/><text x="619.0" y="166.0" class="value" text-anchor="start" dy="0">full frame 47.8 ms</text><line x1="472.3" y1="10.0" x2="472.3" y2="206.0" class="deadline" /><text x="476.3" y="20.0" class="deadline-label" text-anchor="start" dy="0">deadline 33.3 ms</text></svg>